<?xml version="1.0" encoding="UTF-8" standalone="no"?>
<!-- Svg Vector Icons : http://www.onlinewebfonts.com/icon -->

<svg
   xmlns:dc="http://purl.org/dc/elements/1.1/"
   xmlns:cc="http://creativecommons.org/ns#"
   xmlns:rdf="http://www.w3.org/1999/02/22-rdf-syntax-ns#"
   xmlns:svg="http://www.w3.org/2000/svg"
   xmlns="http://www.w3.org/2000/svg"
   xmlns:sodipodi="http://sodipodi.sourceforge.net/DTD/sodipodi-0.dtd"
   xmlns:inkscape="http://www.inkscape.org/namespaces/inkscape"
   version="1.1"
   x="0px"
   y="0px"
   viewBox="0 0 1000 1000"
   enable-background="new 0 0 1000 1000"
   xml:space="preserve"
   id="svg38"
   sodipodi:docname="ediit-resize.svg"
   inkscape:version="0.92.5 (2060ec1f9f, 2020-04-08)"><defs
   id="defs42" /><sodipodi:namedview
   pagecolor="#ffffff"
   bordercolor="#666666"
   borderopacity="1"
   objecttolerance="10"
   gridtolerance="10"
   guidetolerance="10"
   inkscape:pageopacity="0"
   inkscape:pageshadow="2"
   inkscape:window-width="1920"
   inkscape:window-height="1009"
   id="namedview40"
   showgrid="false"
   inkscape:zoom="0.236"
   inkscape:cx="430.08475"
   inkscape:cy="500"
   inkscape:window-x="0"
   inkscape:window-y="0"
   inkscape:window-maximized="1"
   inkscape:current-layer="svg38" />
<metadata
   id="metadata2"> Svg Vector Icons : http://www.onlinewebfonts.com/icon <rdf:RDF><cc:Work
     rdf:about=""><dc:format>image/svg+xml</dc:format><dc:type
       rdf:resource="http://purl.org/dc/dcmitype/StillImage" /></cc:Work></rdf:RDF></metadata>
<g
   id="g36"
   style="fill:#404040;fill-opacity:1"><g
     transform="translate(0.000000,511.000000) scale(0.100000,-0.100000)"
     id="g34"
     style="fill:#404040;fill-opacity:1"><path
       d="M857.8,5019.4c-289.5-77.7-529.5-275.4-661.3-546c-80-160-80-162.4-87.1-555.4l-9.4-395.4h343.6h343.6v270.7c0,317.7,35.3,433,153,506c65.9,40,115.3,47.1,362.4,47.1h284.8v353v353l-310.7-2.4C1105,5050,916.7,5035.9,857.8,5019.4z"
       id="path4"
       style="fill:#404040;fill-opacity:1" /><path
       d="M2175.8,4699.3v-353h482.5h482.5v353v353h-482.5h-482.5V4699.3z"
       id="path6"
       style="fill:#404040;fill-opacity:1" /><path
       d="M3729.1,4699.3v-353l489.5,4.7l487.2,7.1l7.1,348.3l7.1,346h-496.6h-494.2V4699.3z"
       id="path8"
       style="fill:#404040;fill-opacity:1" /><path
       d="M5287.1,4706.4l7.1-348.3l489.5-7.1l487.2-4.7v353v353h-494.2h-496.6L5287.1,4706.4z"
       id="path10"
       style="fill:#404040;fill-opacity:1" /><path
       d="M6859.3,4699.3v-353h482.5h482.5v353v353h-482.5h-482.5V4699.3z"
       id="path12"
       style="fill:#404040;fill-opacity:1" /><path
       d="M8412.6,4699.3v-353h284.8c247.1,0,296.6-7.1,362.5-47.1c117.7-73,153-188.3,153-506v-270.7h343.6H9900l-9.4,395.4c-7.1,393-7.1,395.4-87.1,555.4c-134.1,275.4-397.7,487.2-687.2,553.1c-56.5,14.1-237.7,25.9-402.5,25.9h-301.3V4699.3z"
       id="path14"
       style="fill:#404040;fill-opacity:1" /><path
       d="M104.7,2451.7v-482.5H446h341.3v482.5v482.5H446H104.7V2451.7z"
       id="path16"
       style="fill:#404040;fill-opacity:1" /><path
       d="M9212.8,2451.7v-482.5H9554h341.3v482.5v482.5H9554h-341.3V2451.7z"
       id="path18"
       style="fill:#404040;fill-opacity:1" /><path
       d="M6070.8,2275.2l329.5-329.5L4781.1,328.9L3164.3-1290.3l-329.5,329.5l-329.5,329.5v-877.9v-875.5h875.5h877.9l-329.5,329.5l-329.5,329.5L5218.9-108.9l1616.9,1619.2l329.5-329.5l329.5-329.5v877.9v875.5h-875.5h-877.9L6070.8,2275.2z"
       id="path20"
       style="fill:#404040;fill-opacity:1" /><path
       d="M869.6,1442.1c-291.8-73-541.3-275.4-675.5-548.4l-77.7-160v-2412.3V-4091l80-162.4c134.2-275.4,397.7-487.2,687.2-553.1c65.9-16.5,927.3-25.9,2362.9-25.9c1969.9,0,2280.5,4.7,2400.6,37.7c386,98.8,675.5,423.6,739,833.1c30.6,178.9,35.3,4189.2,7.1,4189.2c-9.4,0-167.1-150.6-353-336.5l-334.2-334.2v-1715.7c0-1896.9,4.7-1828.7-150.6-1922.8c-70.6-42.4-162.4-44.7-2306.4-44.7c-2198.2,0-2233.5,0-2308.8,47.1c-160,98.9-153-2.3-153,2405.3c0,2113.4,2.4,2172.3,47.1,2266.4c91.8,188.3-25.9,176.5,1864,176.5h1678l353,353l353,353l-2047.5-2.4C1488.6,1472.7,959,1463.3,869.6,1442.1z"
       id="path22"
       style="fill:#404040;fill-opacity:1" /><path
       d="M9212.8,886.7V392.4H9554h341.3v494.2v494.2H9554h-341.3V886.7z"
       id="path24"
       style="fill:#404040;fill-opacity:1" /><path
       d="M9212.8-666.7v-494.2H9554h341.3v494.2v494.2H9554h-341.3V-666.7z"
       id="path26"
       style="fill:#404040;fill-opacity:1" /><path
       d="M9212.8-2231.7v-482.5H9554h341.3v482.5v482.5H9554h-341.3V-2231.7z"
       id="path28"
       style="fill:#404040;fill-opacity:1" /><path
       d="M9212.8-3577.9c0-225.9-9.4-291.8-47.1-371.8c-72.9-153-136.5-176.5-468.4-176.5h-284.8v-353v-353h301.3c164.7,0,346,11.8,402.5,25.9c289.5,65.9,553.1,277.7,687.2,553.1c80,160.1,80,162.4,87.1,555.4l9.4,395.4h-343.6h-343.6V-3577.9z"
       id="path30"
       style="fill:#404040;fill-opacity:1" /><path
       d="M6859.3-4479.3v-353h482.5h482.5v353v353h-482.5h-482.5V-4479.3z"
       id="path32"
       style="fill:#404040;fill-opacity:1" /></g></g>
</svg>